<svg width="36" height="41" viewBox="0 0 36 41" fill="none" xmlns="http://www.w3.org/2000/svg">
<path fill-rule="evenodd" clip-rule="evenodd" d="M17.8864 10.6771C20.6775 10.6771 22.9401 8.41453 22.9401 5.62348C22.9401 2.83242 20.6775 0.569824 17.8864 0.569824C15.0954 0.569824 12.8328 2.83242 12.8328 5.62348C12.8328 8.41453 15.0954 10.6771 17.8864 10.6771ZM19.0003 26.8001C18.3803 26.4413 17.6157 26.4414 16.9958 26.8005L7.7573 32.1521C6.97547 32.6481 6.0481 32.9354 5.05365 32.9354C2.2626 32.9354 0 30.6728 0 27.8817C0 25.9506 1.08313 24.2725 2.67501 23.4217L4.92889 22.1171C6.25967 21.3468 6.25966 19.4255 4.92889 18.6552L2.69265 17.3608C1.09113 16.513 0 14.8297 0 12.8914C0 10.1004 2.2626 7.83779 5.05365 7.83779C6.04144 7.83779 6.96303 8.12118 7.74156 8.6111L16.9958 13.9718C17.6157 14.3309 18.3803 14.331 19.0003 13.9722L28.2184 8.63642C29.0053 8.13083 29.9417 7.83757 30.9465 7.83757C33.7375 7.83757 36.0001 10.1002 36.0001 12.8912C36.0001 14.8819 34.8491 16.6038 33.1762 17.4276L31.0565 18.6555C29.7265 19.426 29.7265 21.3463 31.0565 22.1168L33.181 23.3474C34.8513 24.1722 36.0001 25.8927 36.0001 27.8815C36.0001 30.6726 33.7375 32.9352 30.9465 32.9352C29.9389 32.9352 29.0003 32.6403 28.212 32.1322L19.0003 26.8001ZM22.9401 35.3763C22.9401 38.1674 20.6775 40.43 17.8864 40.43C15.0954 40.43 12.8328 38.1674 12.8328 35.3763C12.8328 32.5853 15.0954 30.3227 17.8864 30.3227C20.6775 30.3227 22.9401 32.5853 22.9401 35.3763Z" fill="#3B82F6"/>
</svg>
